<?xml version="1.0" encoding="utf-8"?>
<!-- Generator: Adobe Illustrator 18.1.1, SVG Export Plug-In . SVG Version: 6.00 Build 0)  -->
<svg version="1.1" xmlns="http://www.w3.org/2000/svg" xmlns:xlink="http://www.w3.org/1999/xlink" x="0px" y="0px"
	 viewBox="0 0 612 231" enable-background="new 0 0 612 231" xml:space="preserve">
<g id="Artwork">
	<g>
		<path fill="#62B946" d="M54.7,65.1h98.9c5,0,9.3,1.7,12.8,5c3.5,3.4,5.3,7.4,5.3,12.1v69.4c0,4.7-1.8,8.8-5.3,12.1
			c-3.5,3.4-7.8,5-12.8,5H54.7c-5,0-9.3-1.7-12.8-5c-3.5-3.4-5.3-7.4-5.3-12.1V82.3c0-4.7,1.8-8.8,5.3-12.1
			C45.4,66.8,49.7,65.1,54.7,65.1z"/>
		<path fill="#FFFFFF" d="M111.2,95.1h34.4c4.2,0,7.7,1.5,10.7,4.4c3,2.9,4.4,6.4,4.4,10.5v32.7c0,4.1-1.5,7.6-4.4,10.5
			c-3,2.9-6.5,4.4-10.7,4.4h-34.4c-4.2,0-7.7-1.5-10.7-4.4c-3-2.9-4.4-6.4-4.4-10.5V110c0-4.1,1.5-7.6,4.4-10.5
			C103.5,96.6,107.1,95.1,111.2,95.1z M147.6,107.6h-38.4c-0.2,0-0.4,0.2-0.4,0.4v36.3c0,0.4,0.3,0.8,0.8,0.8h37.6
			c0.4,0,0.8-0.3,0.8-0.8V108C148,107.8,147.8,107.6,147.6,107.6z"/>
		<g>
			<path fill="#FFFFFF" d="M243.4,110.4c0-3.7,1.1-6.7,3.4-9c2.3-2.3,5.6-3.5,9.9-3.5h31.4c0.8,0,1.2,0.3,1.2,0.8v9
				c0,0.5-0.3,0.8-0.9,0.8h-30.6c-0.6,0-0.9,0.3-0.9,0.9v11.1c0,0.5,0.3,0.8,0.9,0.8h28.4c0.6,0,0.9,0.3,0.9,0.8v9.4
				c0,0.5-0.3,0.8-0.9,0.8h-28.4c-0.6,0-0.9,0.3-0.9,0.8v11.8c0,0.5,0.3,0.8,0.9,0.8h30.6c0.6,0,0.9,0.3,0.9,0.8v8.9
				c0,0.5-0.3,0.8-0.9,0.8h-35.8c-1.1,0-2.2-0.3-3.3-0.8c-1.1-0.5-2.1-1.2-3-2c-0.9-0.8-1.6-1.7-2.1-2.7c-0.5-1-0.8-2-0.8-3.1V110.4
				z"/>
			<path fill="#FFFFFF" d="M302.4,98h34.4c1.7,0,3.4,0.3,5.1,0.9s3.3,1.6,4.9,3.1c2.8,2.6,4.3,6.4,4.4,11.6v1.9
				c0,4.8-0.6,8.2-1.9,10.4c-0.9,1.1-1.8,2.1-2.7,3c-0.9,0.9-2.2,1.7-3.8,2.5c-0.1,0.1-0.1,0.1-0.2,0.2c-0.1,0.1-0.1,0.2-0.1,0.4
				c0,0.1,0,0.2,0.1,0.3c1.4,1.6,2.4,3.1,3,4.3c0.6,1.2,1.1,2.5,1.6,3.8l5.1,13.8c0.1,0.4,0.4,0.8,0.7,1.2c0.3,0.4,0.5,0.6,0.5,0.7
				c0,0.3-0.2,0.4-0.6,0.4h-12.8c-0.4,0-0.8-0.3-1.2-0.9c-0.4-0.6-0.7-1-0.8-1.4l-5.7-14.2c-0.9-3-2.6-4.7-5.3-5h-11.3
				c-0.6,0-0.9,0.3-0.9,0.8v19.9c0,0.5-0.3,0.8-0.9,0.8h-11.6c-0.6,0-0.9-0.3-0.9-0.8V98.8C301.4,98.2,301.8,98,302.4,98z
				 M315.8,108.5c-0.6,0-0.9,0.3-0.9,0.8v13.3c0,0.5,0.3,0.8,1,0.8h16.7c0.9,0,1.8-0.4,2.9-1.1c0.9-0.7,1.5-1.6,2-2.8
				s0.7-2.6,0.7-4.1c0-0.8,0-1.5-0.1-2.1c-0.1-0.6-0.3-1.2-0.6-1.7c-1-1.8-2.2-2.8-3.5-2.9H315.8z"/>
			<path fill="#FFFFFF" d="M362.6,98.8c0-0.5,0.3-0.8,0.9-0.8H393c3.5,0,6.4,0.5,8.8,1.4c2.4,0.9,4.3,2.3,5.8,3.9
				c1.5,1.7,2.6,3.7,3.2,6c0.7,2.3,1,4.9,1,7.6c0,2.9-0.3,5.5-1,7.8c-0.7,2.3-1.8,4.3-3.2,6c-1.5,1.7-3.4,3-5.8,3.9
				c-2.4,0.9-5.3,1.3-8.8,1.3h-16.1c-0.6,0-0.9,0.3-0.9,0.8v18.6c0,0.5-0.3,0.8-0.9,0.8h-11.6c-0.6,0-0.9-0.3-0.9-0.8V99.7V98.8z
				 M376.9,108.5c-0.6,0-0.9,0.3-0.9,0.8v15.3c0,0.5,0.3,0.8,0.9,0.8h17.7c1.1,0,2-0.3,2.6-1c0.6-0.7,1.1-1.5,1.4-2.4
				c0.3-0.9,0.5-1.9,0.6-2.8c0.1-0.9,0.1-1.7,0.1-2.2c0-0.5,0-1.3-0.1-2.2c-0.1-0.9-0.3-1.9-0.6-2.8c-0.3-0.9-0.8-1.7-1.4-2.4
				c-0.6-0.7-1.5-1-2.6-1H376.9z"/>
			<path fill="#FFFFFF" d="M457.4,146.5v8.9c0,0.5-0.3,0.8-0.9,0.8h-20.9c-0.5,0-1,0-1.4,0c-0.4,0-0.8,0-1.1-0.1
				c-5.1-0.4-8.8-1.7-10.9-3.9c-2.2-2.2-3.2-5.7-3.2-10.2V98.8c0-0.5,0.3-0.8,0.9-0.8h11.6c0.6,0,0.9,0.3,0.9,0.8V143
				c0,1.8,1.2,2.7,3.6,2.7h20.5C457.1,145.7,457.4,146,457.4,146.5z"/>
			<path fill="#FFFFFF" d="M481.1,105.5c0.7-2.1,3.8-8.8,12.1-8.8c8.3,0,11.7,6.7,12.4,8.8l18.6,50.3c0,0.3-0.2,0.5-0.6,0.5h-12.1
				c-0.6,0-1-0.2-1.2-0.7l-4.9-14.1c-0.2-0.5-0.6-0.8-1.2-0.8h-21.7c-0.6,0-1,0.3-1.2,0.9l-4.9,13.9c-0.2,0.5-0.6,0.8-1.2,0.8h-12
				c-0.5,0-0.7-0.2-0.7-0.5L481.1,105.5z M494.4,110c-0.2-0.6-0.3-1-0.5-1.2s-0.3-0.3-0.6-0.3c-0.3,0-0.6,0.5-1,1.5l-6.5,18.6
				c0,0.1,0,0.2,0,0.2c0,0.1,0,0.1,0,0.2c0,0.4,0.2,0.6,0.7,0.6h13.8c0.5,0,0.7-0.2,0.7-0.6c0-0.1,0-0.1,0-0.2c0-0.1,0-0.1,0-0.2
				L494.4,110z"/>
			<path fill="#FFFFFF" d="M539.6,156.3c-0.9,0-1.4-0.7-1.4-2v-14.4c0-0.9-0.2-1.7-0.7-2.4l-21.9-38.2c-0.5-0.8-0.3-1.2,0.5-1.2
				h12.8c0.7,0,1.3,0.3,1.6,1l13.1,25.1c0.3,0.5,0.8,0.8,1.5,0.8c0.4,0,0.7-0.1,0.9-0.2c0.2-0.1,0.4-0.3,0.6-0.6l12.7-24.9
				c0.4-0.8,0.9-1.1,1.6-1.1h12.5c0.4,0,0.7,0.1,0.8,0.4c0.1,0.2,0.1,0.5,0,0.8l-21.3,38.3c-0.4,0.7-0.6,1.6-0.6,2.4v14.5
				c0,1.4-0.4,2-1.3,2H539.6z"/>
			<path fill="#FFFFFF" d="M237.3,97.9h-11.8c-0.6,0-1,0.3-1.2,0.8l-15.6,44.6c-0.4,1-0.7,1.4-1,1.4c-0.3,0-0.5-0.1-0.6-0.3
				c-0.1-0.2-0.3-0.6-0.5-1.2l-14.4-41.2c-0.8-2.2-1.2-3.5-1.2-3.5c-0.2-0.5-0.6-0.7-1.2-0.7H178c-0.4,0-0.6,0.2-0.6,0.5l12.5,33.7
				l0,0l5.8,15.6c0.7,2.1,4,8.6,12.1,8.6s11.1-6.5,11.9-8.6L238,98.4C238,98,237.8,97.9,237.3,97.9z"/>
		</g>
	</g>
</g>
<g id="Headers_Footers">
</g>
</svg>
